<?xml version="1.0" encoding="UTF-8" standalone="no"?>
<!-- Created with Inkscape (http://www.inkscape.org/) -->

<svg
   width="240"
   height="240"
   viewBox="0 0 63.5 63.5"
   version="1.1"
   id="svg1"
   xml:space="preserve"
   xmlns:xlink="http://www.w3.org/1999/xlink"
   xmlns="http://www.w3.org/2000/svg"
   xmlns:svg="http://www.w3.org/2000/svg"><defs
     id="defs1" /><g
     id="layer1-2"
     style="display:inline;opacity:1"
     transform="translate(-1.3257521,95.365372)"><path
       id="path37"
       style="display:inline;opacity:1;fill:currentColor;stroke-width:0.136047"
       d="m 38.466202,-85.458415 c -0.96628,0.0051 -0.97997,-0.0047 -2.214055,0.192081 -13.509117,3.035164 -22.174531,17.916036 -17.805519,39.987536 0.01673,0.02997 0.02636,0.07177 0.02344,0.124402 l 3.1e-5,5.15e-4 -4.85e-4,5.48e-4 3e-5,5.15e-4 c 0.02009,0.107755 0.04054,0.21587 0.06122,0.324048 0.01107,0.03479 0.02204,0.06974 0.03262,0.104701 0.01677,0.02095 0.03197,0.04699 0.04405,0.07918 0.12757,0.340256 0.322611,0.652923 0.533552,0.945636 0.07023,0.09745 0.145279,0.191151 0.217917,0.286772 0.06694,0.08381 0.135087,0.166274 0.204723,0.247696 0.04129,0.03378 0.08185,0.06866 0.122602,0.102973 0.03258,0.02783 0.0651,0.05589 0.09765,0.08374 0.06228,0.03957 0.123126,0.08121 0.185278,0.120986 0.06975,0.04206 0.136744,0.08799 0.205102,0.132231 0.08202,0.05342 0.165402,0.105608 0.248997,0.156539 l 5.15e-4,-3e-5 3.2e-5,5.15e-4 5.16e-4,-3e-5 c 0.20876,0.06617 0.414098,0.142038 0.6201,0.216255 0.01148,0.0031 0.02321,0.0063 0.03473,0.0093 0.03351,0.0087 0.06571,0.02152 0.0987,0.03192 0.04369,0.01359 0.087,0.02817 0.131271,0.03982 0.0587,0.01455 0.117884,0.02593 0.177212,0.0376 0.0463,0.008 0.09222,0.01656 0.138211,0.02594 0.644109,0.07342 1.757546,0.199202 2.367274,0.268661 0.107351,-2.91e-4 0.214829,0.0016 0.32215,0.0026 0.02217,8.3e-5 0.04413,5.01e-4 0.0663,6.75e-4 0.0837,-8.34e-4 0.167493,3.8e-4 0.251201,0.0022 0.03303,-0.0025 0.06588,-0.0044 0.09901,-0.0064 0.0097,-5.77e-4 0.01801,8.48e-4 0.02453,0.0032 32.342348,-5.03731 38.997794,-44.013593 14.73302,-43.52786 z" /><g id="eyes" class="ghost-face"><ellipse
       style="opacity:1;fill:var(--color-bg);stroke-width:0.136693"
       id="right-eye"
       cx="25.080046"
       cy="-61.52877"
       rx="8.978879"
       ry="13.47194"
       transform="matrix(0.98901957,-0.14778462,-0.19721028,0.98036121,0,0)" /><ellipse
       style="display:inline;fill:var(--color-bg);stroke-width:0.0902248"
       id="left-eye"
       cx="3.1653419"
       cy="-69.883965"
       rx="4.7171679"
       ry="11.171926"
       transform="matrix(0.97973494,0.20029842,-0.28607781,0.95820639,0,0)" /></g><ellipse class="ghost-face"
       style="opacity:1;fill:var(--color-bg);stroke-width:0.164014"
       id="nose"
       cx="-7.0443959"
       cy="-57.48658"
       rx="1.7517296"
       ry="1.2119341"
       transform="matrix(0.94314194,0.33239027,-0.52473813,0.85126371,0,0)" /><ellipse class="ghost-face"
       style="opacity:1;fill:var(--color-bg);stroke-width:0.172063"
       id="mouth"
       cx="87.591904"
       cy="-89.713333"
       rx="3.2421353"
       ry="1.2334145"
       transform="matrix(0.98193135,0.18923746,0.70012294,0.71402231,0,0)" /></g></svg>
